<svg xmlns="http://www.w3.org/2000/svg" xmlns:xlink="http://www.w3.org/1999/xlink" id="Group_1022" data-name="Group 1022" width="129.883" height="106.611" viewBox="0 0 129.883 106.611"><defs><clipPath id="clip-path"><rect id="Rectangle_2694" data-name="Rectangle 2694" width="129.883" height="106.611" fill="none"></rect></clipPath></defs><path id="Path_3203" data-name="Path 3203" d="M64.957,0,.042,23.6V41.12L64.976,17.512,129.911,41.12V23.6L65,0Z" transform="translate(-0.029 0)" fill="#e23c34"></path><path id="Path_3204" data-name="Path 3204" d="M15.995,142.885v8.56H7.327v-8.56H0v24.192H7.327v-9.249h8.668v9.249h7.327V142.885Z" transform="translate(0 -97.513)" fill="#f1f0ee"></path><g id="Group_1021" data-name="Group 1021"><g id="Group_1020" data-name="Group 1020" clip-path="url(#clip-path)"><path id="Path_3205" data-name="Path 3205" d="M94.9,141.629c7.472,0,13.238,5.078,13.238,12.513S102.37,166.655,94.9,166.655,81.66,161.577,81.66,154.142s5.767-12.513,13.238-12.513m0,6.456a6.063,6.063,0,1,0,5.8,6.057,5.726,5.726,0,0,0-5.8-6.057" transform="translate(-55.73 -96.656)" fill="#f1f0ee"></path><path id="Path_3206" data-name="Path 3206" d="M194.657,151.808l-5.4,15.269h-3.264l-5.4-15.269v15.269h-7.326V142.885h10.119l4.244,12.332,4.244-12.332h10.119v24.192h-7.327Z" transform="translate(-118.241 -97.513)" fill="#f1f0ee"></path><path id="Path_3207" data-name="Path 3207" d="M276.048,142.885H294.4v6.094H283.375v2.829h10.772V157.9H283.375v3.083H294.4v6.093H276.048Z" transform="translate(-188.391 -97.513)" fill="#f1f0ee"></path><path id="Path_3208" data-name="Path 3208" d="M342.1,157.448a11.274,11.274,0,0,0,7.8,3.119c1.378,0,2.684-.472,2.684-1.414s-1.015-1.415-3.409-1.85c-3.99-.726-10.083-1.668-10.083-7.725,0-4.1,3.409-7.834,10.047-7.834a15.96,15.96,0,0,1,10.264,3.373l-3.917,5.187a12.043,12.043,0,0,0-6.746-2.394c-1.813,0-2.212.653-2.212,1.27,0,.942.979,1.269,3.554,1.7,3.99.689,9.9,1.85,9.9,7.435,0,5.332-3.953,8.414-10.446,8.414-5.15,0-8.668-1.523-11.244-3.844Z" transform="translate(-230.869 -96.734)" fill="#f1f0ee"></path><path id="Path_3209" data-name="Path 3209" d="M.089,234.226H24.111V242.2H9.679v3.7h14.1v7.975H9.679v12.011H.089Z" transform="translate(-0.061 -159.85)" fill="#e23c34"></path><rect id="Rectangle_2693" data-name="Rectangle 2693" width="9.59" height="31.665" transform="translate(28.419 74.377)" fill="#e23c34"></rect><path id="Path_3210" data-name="Path 3210" d="M149.8,255.732h-3.465v10.159h-9.59V234.226h16.9c7.406,0,11.394,4.937,11.394,10.871a10.206,10.206,0,0,1-5.7,9.589l5.744,11.2H154.17Zm2.374-13.53h-5.839v5.554h5.839a2.8,2.8,0,1,0,0-5.554" transform="translate(-93.324 -159.849)" fill="#e23c34"></path><path id="Path_3211" data-name="Path 3211" d="M235.461,253.287a14.757,14.757,0,0,0,10.206,4.083c1.8,0,3.513-.617,3.513-1.852s-1.329-1.851-4.463-2.421c-5.222-.949-13.2-2.183-13.2-10.111,0-5.365,4.463-10.254,13.15-10.254a20.889,20.889,0,0,1,13.435,4.415l-5.127,6.789a15.765,15.765,0,0,0-8.831-3.133c-2.373,0-2.9.855-2.9,1.661,0,1.234,1.282,1.662,4.652,2.232,5.222.9,12.96,2.421,12.96,9.732,0,6.979-5.174,11.014-13.672,11.014-6.741,0-11.346-1.994-14.717-5.032Z" transform="translate(-157.29 -158.829)" fill="#e23c34"></path><path id="Path_3212" data-name="Path 3212" d="M332.854,242.581h-8.5v-8.355h26.537v8.355h-8.45v23.309h-9.589Z" transform="translate(-221.36 -159.849)" fill="#e23c34"></path></g></g></svg>